<?xml version="1.0" encoding="utf-8"?>
<!-- Generator: Adobe Illustrator 27.0.1, SVG Export Plug-In . SVG Version: 6.00 Build 0)  -->
<svg version="1.1" id="Layer_1" xmlns="http://www.w3.org/2000/svg" xmlns:xlink="http://www.w3.org/1999/xlink" x="0px" y="0px"
	 viewBox="0 0 100 100" style="enable-background:new 0 0 100 100;" xml:space="preserve" height="100">
<style type="text/css">
	.st0{fill:none;stroke:#000000;stroke-width:6;stroke-miterlimit:10;}
	.st1{stroke:#000000;stroke-width:4;stroke-miterlimit:10;}
	.st2{fill:#FFFFFF;}
	.st3{stroke:#000000;stroke-width:3;stroke-miterlimit:10;}
	.st4{fill:#FFFFFF;stroke:#000000;stroke-width:3;stroke-miterlimit:10;}
	.st5{fill:none;stroke:#000000;stroke-miterlimit:10;}
</style>
<line class="st0" x1="136.18" y1="7.64" x2="136.18" y2="72.74"/>
<g>
	<g>
		<path d="M156.34,52.05c0-4.11-5.78-5.94-18.66-8.09l-5.63-0.95c-15.11-2.53-25.47-6.2-25.47-12.65c0-7.27,14.37-11.7,33.17-11.7
			c9.92,0,17.77,1.33,24.14,3.35L163,30.24h-8.89l-4.15-9.55l9.48,2.09v3.16c-7.26-3.04-12.74-4.11-20.59-4.11
			c-11.55,0-20.29,2.47-20.29,7.21c0,3.98,6.07,6.32,16.88,8.09l5.78,0.95c19.55,3.23,27.1,6.89,27.1,12.84
			c0,7.46-14.66,12.01-34.95,12.01c-11.11,0-21.92-1.52-28.73-3.35l0.89-8.85h8.89l3.85,9.74l-9.63-1.77v-3.04
			c9.18,2.85,14.22,4.11,24.29,4.11C147.01,59.77,156.34,56.99,156.34,52.05z"/>
	</g>
</g>
<polygon class="st1" points="31.09,-39.91 20.11,-20.9 4.11,-48.62 -20.77,-5.53 11.23,-5.53 28.99,-5.53 50.94,-5.53 "/>
<path class="st2" d="M-7.94-35.32c0,0,8.38-8.63,10.61-4.93c1.11,1.85,2.18,2.13,2.97,1.94c0.71-0.16,1.21-0.79,1.34-1.51
	c0.13-0.74,0.63-1.76,2.38-1.36c2.64,0.61,2.97-0.05,2.97-0.05"/>
<path class="st2" d="M21.13-29.42c0,0,8.66-8.63,10.96-4.93s3.92,3.7,3.92,3.7s0.26-5.23,2.99-4.62c2.73,0.61,3.07-0.05,3.07-0.05"
	/>
<path class="st3" d="M-42.17-8.41c0,0,3.45,21.67,24.34,24.95l4.18-2.55c0,0,1.27-6.01-1.27-5.28l-4.54-0.18l-1.7,3.47
	c0,0-12.71-6.76-16.34-19.14l2.6-2.91l-2.18-3.82h-3.09C-40.17-13.87-44.34-11.51-42.17-8.41z"/>
<polygon class="st4" points="-33.74,27.16 -39.34,46.37 -22.09,50 -6.51,45.46 -13.77,26.05 "/>
<path class="st5" d="M86.25,20.94h8.73v64.64c0,0-12.91-5.31-40.62-9.22S5.02,85.57,5.02,85.57V20.94h9.11"/>
<path class="st5" d="M50,19.44v54.94c0,0,28.66-6.67,35.87,0V16.13C85.87,16.13,63.86,10.61,50,19.44z"/>
<path class="st5" d="M50,19.44v54.94c0,0-28.66-6.67-35.87,0V16.13C14.13,16.13,36.14,10.61,50,19.44z"/>
<polyline class="st5" points="124.16,-29.88 129.68,-39.88 143.76,-15.47 132.93,-15.47 "/>
<polygon class="st5" points="117.45,-42.28 134.32,-13.07 100.59,-13.07 "/>
<path class="st5" d="M110.66-30.52c0,0,2.8,2.66,4.92,1.65c2.12-1.01,3.51-1.65,3.51-1.65s0.94,2.31,3.46,1.88
	c2.52-0.43,1.32-2.52,1.32-2.52"/>
<path class="st5" d="M125.39-31.81c0,0,1.85,2.66,3.26,1.65c1.41-1.01,2.32-1.65,2.32-1.65s0.62,2.31,2.29,1.88
	c1.67-0.43,0.87-2.52,0.87-2.52"/>
</svg>
