<?xml version="1.0" encoding="utf-8"?>
<!-- Generator: Adobe Illustrator 27.0.1, SVG Export Plug-In . SVG Version: 6.00 Build 0)  -->
<svg version="1.1" id="Layer_1" xmlns="http://www.w3.org/2000/svg" xmlns:xlink="http://www.w3.org/1999/xlink" x="0px" y="0px"
	 viewBox="0 0 100 100" style="enable-background:new 0 0 100 100;" xml:space="preserve" height="100">
<style type="text/css">
	.st0{fill:none;stroke:#000000;stroke-width:6;stroke-miterlimit:10;}
	.st1{stroke:#000000;stroke-width:4;stroke-miterlimit:10;}
	.st2{fill:#FFFFFF;}
	.st3{stroke:#000000;stroke-width:3;stroke-miterlimit:10;}
	.st4{fill:#FFFFFF;stroke:#000000;stroke-width:3;stroke-miterlimit:10;}
	.st5{fill:none;stroke:#000000;stroke-miterlimit:10;}
</style>
<line class="st0" x1="136.18" y1="7.64" x2="136.18" y2="72.74"/>
<g>
	<g>
		<path d="M156.34,52.05c0-4.11-5.78-5.94-18.66-8.09l-5.63-0.95c-15.11-2.53-25.47-6.2-25.47-12.65c0-7.27,14.37-11.7,33.17-11.7
			c9.92,0,17.77,1.33,24.14,3.35L163,30.24h-8.89l-4.15-9.55l9.48,2.09v3.16c-7.26-3.04-12.74-4.11-20.59-4.11
			c-11.55,0-20.29,2.47-20.29,7.21c0,3.98,6.07,6.32,16.88,8.09l5.78,0.95c19.55,3.23,27.1,6.89,27.1,12.84
			c0,7.46-14.66,12.01-34.95,12.01c-11.11,0-21.92-1.52-28.73-3.35l0.89-8.85h8.89l3.85,9.74l-9.63-1.77v-3.04
			c9.18,2.85,14.22,4.11,24.29,4.11C147.01,59.77,156.34,56.99,156.34,52.05z"/>
	</g>
</g>
<polygon class="st1" points="31.09,-39.91 20.11,-20.9 4.11,-48.62 -20.77,-5.53 11.23,-5.53 28.99,-5.53 50.94,-5.53 "/>
<path class="st2" d="M-7.94-35.32c0,0,8.38-8.63,10.61-4.93c1.11,1.85,2.18,2.13,2.97,1.94c0.71-0.16,1.21-0.79,1.34-1.51
	c0.13-0.74,0.63-1.76,2.38-1.36c2.64,0.61,2.97-0.05,2.97-0.05"/>
<path class="st2" d="M21.13-29.42c0,0,8.66-8.63,10.96-4.93s3.92,3.7,3.92,3.7s0.26-5.23,2.99-4.62c2.73,0.61,3.07-0.05,3.07-0.05"
	/>
<path class="st3" d="M-107.8-6.71c0,0,10.24,64.29,72.21,74.02l12.4-7.56c0,0,3.77-17.83-3.77-15.67l-13.47-0.54l-5.04,10.31
	c0,0-37.7-20.05-48.48-56.78l7.71-8.63l-6.47-11.35h-9.16C-101.87-22.92-114.27-15.89-107.8-6.71z"/>
<polygon class="st4" points="-33.74,27.16 -39.34,46.37 -22.09,50 -6.51,45.46 -13.77,26.05 "/>
<path class="st5" d="M-16.85,60.42h8.73v64.64c0,0-12.91-5.31-40.62-9.22s-49.35,9.22-49.35,9.22V60.42h9.11"/>
<path class="st5" d="M-53.11,58.93v54.94c0,0,28.66-6.67,35.87,0V55.61C-17.23,55.61-39.25,50.09-53.11,58.93z"/>
<path class="st5" d="M-53.11,58.93v54.94c0,0-28.66-6.67-35.87,0V55.61C-88.98,55.61-66.96,50.09-53.11,58.93z"/>
<polyline class="st5" points="54.45,45.05 66.85,22.59 98.51,77.42 74.16,77.42 "/>
<polygon class="st5" points="39.39,17.18 77.28,82.82 1.49,82.82 "/>
<path class="st5" d="M24.13,43.6c0,0,6.29,5.98,11.06,3.7s7.89-3.7,7.89-3.7s2.1,5.19,7.77,4.22s2.96-5.65,2.96-5.65"/>
<path class="st5" d="M57.22,40.71c0,0,4.16,5.98,7.32,3.7c3.16-2.28,5.22-3.7,5.22-3.7s1.39,5.19,5.14,4.22
	c3.75-0.98,1.96-5.65,1.96-5.65"/>
</svg>
